<svg width="535" height="112" viewBox="0 0 535 112" fill="none" xmlns="http://www.w3.org/2000/svg">
<path d="M82.5 11H7.5C5.51088 11 3.60322 11.7902 2.1967 13.1967C0.790176 14.6032 0 16.5109 0 18.5V93.5C0 95.4891 0.790176 97.3968 2.1967 98.8033C3.60322 100.21 5.51088 101 7.5 101H82.5C84.4891 101 86.3968 100.21 87.8033 98.8033C89.2098 97.3968 90 95.4891 90 93.5V18.5C90 16.5109 89.2098 14.6032 87.8033 13.1967C86.3968 11.7902 84.4891 11 82.5 11ZM53.5969 32.4031C52.8932 31.6995 52.4979 30.7451 52.4979 29.75C52.4979 28.7549 52.8932 27.8005 53.5969 27.0969C54.3005 26.3932 55.2549 25.9979 56.25 25.9979C57.2451 25.9979 58.1995 26.3932 58.9031 27.0969L63.75 31.9484L68.5969 27.0969C69.3005 26.3932 70.2549 25.9979 71.25 25.9979C72.2451 25.9979 73.1995 26.3932 73.9031 27.0969C74.6068 27.8005 75.0021 28.7549 75.0021 29.75C75.0021 30.7451 74.6068 31.6995 73.9031 32.4031L69.0516 37.25L73.9031 42.0969C74.2515 42.4453 74.5279 42.8589 74.7165 43.3141C74.905 43.7694 75.0021 44.2573 75.0021 44.75C75.0021 45.2427 74.905 45.7306 74.7165 46.1859C74.5279 46.6411 74.2515 47.0547 73.9031 47.4031C73.5547 47.7515 73.1411 48.0279 72.6859 48.2165C72.2306 48.405 71.7427 48.5021 71.25 48.5021C70.7573 48.5021 70.2694 48.405 69.8141 48.2165C69.3589 48.0279 68.9453 47.7515 68.5969 47.4031L63.75 42.5516L58.9031 47.4031C58.1995 48.1068 57.2451 48.5021 56.25 48.5021C55.2549 48.5021 54.3005 48.1068 53.5969 47.4031C52.8932 46.6995 52.4979 45.7451 52.4979 44.75C52.4979 43.7549 52.8932 42.8005 53.5969 42.0969L58.4484 37.25L53.5969 32.4031ZM37.5 78.5H30V86C30 86.9946 29.6049 87.9484 28.9016 88.6517C28.1984 89.3549 27.2446 89.75 26.25 89.75C25.2554 89.75 24.3016 89.3549 23.5984 88.6517C22.8951 87.9484 22.5 86.9946 22.5 86V78.5H15C14.0054 78.5 13.0516 78.1049 12.3484 77.4017C11.6451 76.6984 11.25 75.7446 11.25 74.75C11.25 73.7554 11.6451 72.8016 12.3484 72.0983C13.0516 71.3951 14.0054 71 15 71H22.5V63.5C22.5 62.5054 22.8951 61.5516 23.5984 60.8483C24.3016 60.1451 25.2554 59.75 26.25 59.75C27.2446 59.75 28.1984 60.1451 28.9016 60.8483C29.6049 61.5516 30 62.5054 30 63.5V71H37.5C38.4946 71 39.4484 71.3951 40.1516 72.0983C40.8549 72.8016 41.25 73.7554 41.25 74.75C41.25 75.7446 40.8549 76.6984 40.1516 77.4017C39.4484 78.1049 38.4946 78.5 37.5 78.5ZM37.5 41H15C14.0054 41 13.0516 40.6049 12.3484 39.9016C11.6451 39.1984 11.25 38.2446 11.25 37.25C11.25 36.2554 11.6451 35.3016 12.3484 34.5984C13.0516 33.8951 14.0054 33.5 15 33.5H37.5C38.4946 33.5 39.4484 33.8951 40.1516 34.5984C40.8549 35.3016 41.25 36.2554 41.25 37.25C41.25 38.2446 40.8549 39.1984 40.1516 39.9016C39.4484 40.6049 38.4946 41 37.5 41ZM75 86H52.5C51.5054 86 50.5516 85.6049 49.8483 84.9017C49.1451 84.1984 48.75 83.2446 48.75 82.25C48.75 81.2554 49.1451 80.3016 49.8483 79.5983C50.5516 78.8951 51.5054 78.5 52.5 78.5H75C75.9946 78.5 76.9484 78.8951 77.6517 79.5983C78.3549 80.3016 78.75 81.2554 78.75 82.25C78.75 83.2446 78.3549 84.1984 77.6517 84.9017C76.9484 85.6049 75.9946 86 75 86ZM75 71H52.5C51.5054 71 50.5516 70.6049 49.8483 69.9017C49.1451 69.1984 48.75 68.2446 48.75 67.25C48.75 66.2554 49.1451 65.3016 49.8483 64.5983C50.5516 63.8951 51.5054 63.5 52.5 63.5H75C75.9946 63.5 76.9484 63.8951 77.6517 64.5983C78.3549 65.3016 78.75 66.2554 78.75 67.25C78.75 68.2446 78.3549 69.1984 77.6517 69.9017C76.9484 70.6049 75.9946 71 75 71Z" fill="black"/>
<path d="M142.492 98.1949C136.359 98.1949 131.061 96.9203 126.6 94.3712C122.166 91.7956 118.754 88.1578 116.364 83.458C113.974 78.7315 112.78 73.1687 112.78 66.7694C112.78 60.4763 113.974 54.9533 116.364 50.2003C118.781 45.4207 122.153 41.7033 126.481 39.048C130.809 36.3662 135.894 35.0252 141.736 35.0252C145.506 35.0252 149.064 35.6359 152.41 36.8574C155.782 38.0523 158.756 39.911 161.332 42.4335C163.934 44.9561 165.979 48.169 167.466 52.0723C168.952 55.949 169.696 60.5692 169.696 65.933V70.354H119.551V60.6356H155.875C155.849 57.8741 155.251 55.418 154.083 53.2672C152.914 51.0898 151.281 49.3771 149.184 48.1291C147.113 46.8812 144.696 46.2572 141.935 46.2572C138.987 46.2572 136.398 46.9741 134.168 48.408C131.938 49.8153 130.198 51.674 128.95 53.9841C127.729 56.2676 127.105 58.7769 127.078 61.5119V69.9956C127.078 73.5537 127.729 76.6073 129.03 79.1564C130.331 81.6789 132.15 83.6173 134.487 84.9715C136.823 86.2991 139.558 86.963 142.692 86.963C144.789 86.963 146.688 86.6709 148.387 86.0867C150.087 85.476 151.56 84.5865 152.808 83.4181C154.056 82.2498 154.999 80.8027 155.636 79.0767L169.099 80.5902C168.249 84.1483 166.629 87.255 164.239 89.9103C161.876 92.5391 158.849 94.5837 155.158 96.0441C151.467 97.478 147.245 98.1949 142.492 98.1949ZM230.247 51.9926L217.103 53.4265C216.731 52.0988 216.081 50.8508 215.151 49.6825C214.249 48.5142 213.027 47.5715 211.487 46.8546C209.947 46.1377 208.062 45.7792 205.831 45.7792C202.831 45.7792 200.308 46.4297 198.264 47.7308C196.246 49.0319 195.25 50.7181 195.276 52.7892C195.25 54.5683 195.9 56.0154 197.228 57.1306C198.582 58.2458 200.813 59.1619 203.92 59.8789L214.355 62.1093C220.143 63.3573 224.445 65.3355 227.26 68.0439C230.101 70.7523 231.535 74.2972 231.561 78.6784C231.535 82.5286 230.406 85.9274 228.176 88.8748C225.972 91.7956 222.905 94.0792 218.975 95.7255C215.045 97.3717 210.531 98.1949 205.433 98.1949C197.945 98.1949 191.918 96.6283 187.35 93.495C182.783 90.3352 180.062 85.9407 179.185 80.3114L193.245 78.9572C193.882 81.7187 195.237 83.8031 197.308 85.2105C199.379 86.6178 202.074 87.3214 205.393 87.3214C208.819 87.3214 211.567 86.6178 213.638 85.2105C215.736 83.8031 216.784 82.0639 216.784 79.9928C216.784 78.2403 216.107 76.7931 214.753 75.6514C213.425 74.5096 211.354 73.6333 208.54 73.0226L198.104 70.832C192.236 69.6105 187.895 67.5527 185.08 64.6584C182.266 61.7376 180.871 58.0467 180.898 53.5858C180.871 49.8153 181.894 46.5492 183.965 43.7877C186.063 40.9997 188.97 38.8489 192.688 37.3353C196.432 35.7953 200.746 35.0252 205.632 35.0252C212.801 35.0252 218.444 36.552 222.56 39.6056C226.702 42.6592 229.264 46.7882 230.247 51.9926ZM274 35.8218V46.9741H238.83V35.8218H274ZM247.513 21.1645H261.931V78.5987C261.931 80.5371 262.223 82.0241 262.807 83.0597C263.418 84.0687 264.215 84.7591 265.197 85.1308C266.18 85.5025 267.268 85.6884 268.463 85.6884C269.366 85.6884 270.189 85.622 270.933 85.4893C271.703 85.3565 272.287 85.237 272.685 85.1308L275.115 96.4026C274.345 96.6681 273.243 96.9602 271.809 97.2788C270.402 97.5974 268.676 97.7833 266.631 97.8364C263.02 97.9426 259.767 97.3983 256.873 96.2034C253.979 94.982 251.682 93.0967 249.982 90.5476C248.31 87.9985 247.486 84.8122 247.513 80.9885V21.1645ZM286.058 97V35.8218H300.476V97H286.058ZM293.307 27.139C291.023 27.139 289.058 26.3822 287.412 24.8687C285.766 23.3286 284.943 21.4832 284.943 19.3324C284.943 17.155 285.766 15.3096 287.412 13.7961C289.058 12.256 291.023 11.486 293.307 11.486C295.617 11.486 297.582 12.256 299.202 13.7961C300.848 15.3096 301.671 17.155 301.671 19.3324C301.671 21.4832 300.848 23.3286 299.202 24.8687C297.582 26.3822 295.617 27.139 293.307 27.139ZM315.303 97V35.8218H329.084V46.2173H329.801C331.075 42.7123 333.186 39.9774 336.134 38.0124C339.081 36.021 342.599 35.0252 346.689 35.0252C350.831 35.0252 354.323 36.0342 357.164 38.0523C360.031 40.0437 362.049 42.7654 363.218 46.2173H363.855C365.209 42.8185 367.493 40.1101 370.706 38.0921C373.945 36.0475 377.782 35.0252 382.216 35.0252C387.846 35.0252 392.439 36.8043 395.998 40.3624C399.556 43.9205 401.335 49.1116 401.335 55.9357V97H386.877V58.1662C386.877 54.3691 385.868 51.5943 383.849 49.8418C381.831 48.0628 379.362 47.1732 376.441 47.1732C372.963 47.1732 370.241 48.2619 368.276 50.4393C366.338 52.5901 365.369 55.3914 365.369 58.8433V97H351.229V57.5687C351.229 54.4089 350.273 51.8864 348.361 50.0011C346.476 48.1159 344.007 47.1732 340.953 47.1732C338.882 47.1732 336.997 47.7043 335.297 48.7664C333.598 49.802 332.244 51.2757 331.235 53.1875C330.226 55.0728 329.721 57.2767 329.721 59.7992V97H315.303ZM433.567 98.2347C429.69 98.2347 426.198 97.5443 423.092 96.1636C420.011 94.7563 417.569 92.6851 415.763 89.9502C413.984 87.2152 413.094 83.843 413.094 79.8335C413.094 76.3816 413.732 73.5271 415.006 71.2701C416.281 69.0131 418.02 67.2075 420.224 65.8533C422.428 64.4991 424.91 63.4768 427.672 62.7864C430.46 62.0695 433.341 61.5517 436.315 61.2331C439.9 60.8613 442.807 60.5294 445.038 60.2373C447.268 59.9187 448.888 59.4407 449.897 58.8035C450.932 58.1396 451.45 57.1173 451.45 55.7366V55.4976C451.45 52.4971 450.561 50.1737 448.782 48.5274C447.003 46.8812 444.44 46.058 441.095 46.058C437.563 46.058 434.762 46.828 432.69 48.3681C430.646 49.9082 429.265 51.7271 428.548 53.8248L415.086 51.913C416.148 48.1955 417.9 45.0888 420.343 42.5928C422.786 40.0703 425.773 38.185 429.305 36.937C432.837 35.6625 436.74 35.0252 441.015 35.0252C443.962 35.0252 446.896 35.3704 449.817 36.0608C452.738 36.7512 455.407 37.8929 457.823 39.4861C460.239 41.0528 462.178 43.1903 463.638 45.8987C465.125 48.6071 465.868 51.9926 465.868 56.0552V97H452.008V88.596H451.53C450.654 90.2954 449.419 91.8885 447.826 93.3755C446.259 94.8359 444.281 96.0175 441.891 96.9203C439.528 97.7966 436.753 98.2347 433.567 98.2347ZM437.311 87.6401C440.205 87.6401 442.714 87.0692 444.838 85.9274C446.963 84.7591 448.596 83.219 449.738 81.3072C450.906 79.3953 451.49 77.3109 451.49 75.0539V67.8448C451.039 68.2165 450.269 68.5617 449.18 68.8803C448.118 69.199 446.923 69.4778 445.595 69.7168C444.268 69.9557 442.953 70.1682 441.652 70.354C440.351 70.5399 439.223 70.6992 438.267 70.832C436.116 71.1241 434.191 71.602 432.491 72.2659C430.792 72.9297 429.451 73.859 428.469 75.0539C427.486 76.2223 426.995 77.7358 426.995 79.5945C426.995 82.2498 427.964 84.2545 429.902 85.6087C431.841 86.963 434.31 87.6401 437.311 87.6401ZM528.72 51.9926L515.576 53.4265C515.204 52.0988 514.553 50.8508 513.624 49.6825C512.721 48.5142 511.5 47.5715 509.96 46.8546C508.42 46.1377 506.534 45.7792 504.304 45.7792C501.304 45.7792 498.781 46.4297 496.736 47.7308C494.718 49.0319 493.723 50.7181 493.749 52.7892C493.723 54.5683 494.373 56.0154 495.701 57.1306C497.055 58.2458 499.285 59.1619 502.392 59.8789L512.828 62.1093C518.616 63.3573 522.918 65.3355 525.732 68.0439C528.573 70.7523 530.007 74.2972 530.034 78.6784C530.007 82.5286 528.879 85.9274 526.648 88.8748C524.444 91.7956 521.378 94.0792 517.448 95.7255C513.518 97.3717 509.004 98.1949 503.906 98.1949C496.418 98.1949 490.39 96.6283 485.823 93.495C481.256 90.3352 478.534 85.9407 477.658 80.3114L491.718 78.9572C492.355 81.7187 493.709 83.8031 495.78 85.2105C497.852 86.6178 500.547 87.3214 503.866 87.3214C507.291 87.3214 510.039 86.6178 512.111 85.2105C514.208 83.8031 515.257 82.0639 515.257 79.9928C515.257 78.2403 514.58 76.7931 513.226 75.6514C511.898 74.5096 509.827 73.6333 507.012 73.0226L496.577 70.832C490.709 69.6105 486.367 67.5527 483.553 64.6584C480.738 61.7376 479.344 58.0467 479.371 53.5858C479.344 49.8153 480.366 46.5492 482.438 43.7877C484.535 40.9997 487.443 38.8489 491.16 37.3353C494.904 35.7953 499.219 35.0252 504.105 35.0252C511.274 35.0252 516.917 36.552 521.032 39.6056C525.175 42.6592 527.737 46.7882 528.72 51.9926Z" fill="black"/>
</svg>
